<?xml version="1.0" encoding="UTF-8"?>
<svg width="48px" height="43px" viewBox="0 0 48 43" version="1.1" xmlns="http://www.w3.org/2000/svg" xmlns:xlink="http://www.w3.org/1999/xlink">
    <!-- Generator: sketchtool 53 (72520) - https://sketchapp.com -->
    <title>205E65E9-54DB-48D5-B22F-8DF8DD007DA5</title>
    <desc>Created with sketchtool.</desc>
    <g id="mvp-&gt;=-1200" stroke="none" stroke-width="1" fill="none" fill-rule="evenodd">
        <g id="Quem-Somos-&gt;-Perfil-Lawyer@1200" transform="translate(-194.000000, -435.000000)" fill="#1ACE8A" fill-rule="nonzero">
            <g id="grupo-meritos" transform="translate(193.000000, 429.000000)">
                <g id="Group-18" transform="translate(0.000000, 6.000000)">
                    <g id="Group-21" transform="translate(1.000000, 0.000000)">
                        <g id="captain-(1)">
                            <path d="M10.3125,32.0999 C9.795,32.0999 9.375,32.5479 9.375,33.0999 C9.375,33.6519 9.795,34.0999 10.3125,34.0999 C10.83,34.0999 11.25,33.6519 11.25,33.0999 C11.25,32.5479 10.83,32.0999 10.3125,32.0999 Z" id="Path"></path>
                            <path d="M48,15.0999 C48,14.6105 47.7391875,14.4186 47.3970938,14.0421 C42.6645,8.8352 33.3317812,0.0999 24,0.0999 C14.7312187,0.0999 5.357625,8.8413 0.595125,14.0519 C0.48871875,14.1683 0.37903125,14.2883 0.336375,14.3326 C0.1245,14.5213 0,14.8019 0,15.0999 C0,19.5844 1.84190625,23.0414 5.625,25.6523 L5.625,28.8638 L3.849,32.6527 C3.66853125,33.0377 3.7393125,33.5026 4.02459375,33.807 C9.51928125,39.6677 16.0613437,42.0728 23.997,42.0999 C24.0395625,42.1 24.0818437,42.1001 24.1243125,42.1001 C34.9452188,42.1 40.6343437,37.3709 43.9754063,33.807 C44.2606875,33.5026 44.3314687,33.0377 44.151,32.6527 L42.375,28.8639 L42.375,25.6523 C46.1580937,23.0414 48,19.5844 48,15.0999 Z M24.123,40.1001 C24.08325,40.1001 24.0429375,40.1 24.0030937,40.0999 C14.2424062,40.0665 8.97946875,36.1128 5.831625,32.8954 L7.14196875,30.0999 L40.8582187,30.0999 L42.1686562,32.8955 C39.0044062,36.1323 33.7445625,40.1001 24.123,40.1001 Z M7.5,28.0999 L7.5,26.0999 L40.5,26.0999 L40.5,28.0999 L7.5,28.0999 Z M41.170125,24.0999 L6.82996875,24.0999 C3.5720625,21.9196 1.98946875,19.1767 1.881,15.5101 C7.47215625,9.3784 16.0055625,2.0999 24,2.0999 C32.0391562,2.0999 40.47825,9.3115 46.1190937,15.5091 C46.0107187,19.1761 44.4282187,21.9194 41.170125,24.0999 Z" id="Shape"></path>
                            <path d="M24,4.0999 C19.3475625,4.0999 15.5625,8.1373 15.5625,13.0999 C15.5625,18.0625 19.3475625,22.0999 24,22.0999 C28.6524375,22.0999 32.4375,18.0625 32.4375,13.0999 C32.4375,8.1373 28.6524375,4.0999 24,4.0999 Z M24,20.0999 C20.3814375,20.0999 17.4375,16.9597 17.4375,13.0999 C17.4375,9.2401 20.3814375,6.0999 24,6.0999 C27.6185625,6.0999 30.5625,9.2401 30.5625,13.0999 C30.5625,16.9597 27.6185625,20.0999 24,20.0999 Z" id="Shape"></path>
                            <path d="M27.75,12.0999 C27.2323125,12.0999 26.8125,12.5477 26.8125,13.0999 C26.8125,14.4035 26.0286562,15.5151 24.9375,15.9279 L24.9375,11.7807 C25.4554687,11.4244 25.8,10.8049 25.8,10.0999 C25.8,8.9971 24.958875,8.0999 23.925,8.0999 C22.891125,8.0999 22.05,8.9971 22.05,10.0999 C22.05,10.8709 22.46175,11.5402 23.0625,11.8739 L23.0625,15.9279 C21.9713437,15.5151 21.1875,14.4036 21.1875,13.0999 C21.1875,12.5477 20.7677812,12.0999 20.25,12.0999 C19.7322187,12.0999 19.3125,12.5477 19.3125,13.0999 C19.3125,15.8569 21.4153125,18.0999 24,18.0999 C26.5846875,18.0999 28.6875,15.8569 28.6875,13.0999 C28.6875,12.5477 28.2676875,12.0999 27.75,12.0999 Z" id="Path"></path>
                            <path d="M24.1265625,36.0999 L24.0152812,36.0999 C20.142,36.086 16.4779687,35.3791 13.9626562,34.1604 C13.4911875,33.9321 12.9355312,34.1545 12.7213125,34.6573 C12.5071875,35.1601 12.7157812,35.7529 13.1871562,35.9813 C15.9353437,37.3128 19.8797812,38.085 24.0120937,38.0999 L24.1264687,38.0999 C24.6441562,38.0999 25.0639687,37.6521 25.0639687,37.0999 C25.0639687,36.5477 24.64425,36.0999 24.1265625,36.0999 Z" id="Path"></path>
                        </g>
                    </g>
                </g>
            </g>
        </g>
    </g>
</svg>