<?xml version="1.0" encoding="UTF-8"?>
<svg width="24px" height="24px" viewBox="0 0 24 24" version="1.1" xmlns="http://www.w3.org/2000/svg" xmlns:xlink="http://www.w3.org/1999/xlink">
    <!-- Generator: sketchtool 53 (72520) - https://sketchapp.com -->
    <title>56EE3362-C49F-42A7-AB77-61C33AEE18E2</title>
    <desc>Created with sketchtool.</desc>
    <g id="mvp-&gt;=-1200" stroke="none" stroke-width="1" fill="none" fill-rule="evenodd" opacity="0.3">
        <g id="Home@1200" transform="translate(-1143.000000, -2845.000000)" fill="#FFFFFF">
            <g id="footer" transform="translate(0.000000, 2676.000000)">
                <g id="social-media" transform="translate(1143.000000, 169.000000)">
                    <g id="iconfinder_facebook_square_black_107119">
                        <path d="M10.306,18.528 L13.0036,18.528 L13.0036,11.9992 L14.8032,11.9992 L15.0416,9.7496 L13.0036,9.7496 L13.0064,8.6232 C13.0064,8.0368 13.0624,7.722 13.904,7.722 L15.0288,7.722 L15.0288,5.472 L13.2288,5.472 C11.0668,5.472 10.306,6.5636 10.306,8.3988 L10.306,9.7496 L8.9584,9.7496 L8.9584,11.9996 L10.306,11.9996 L10.306,18.528 L10.306,18.528 Z M0,0 L24,0 L24,24 L0,24 L0,0 Z" id="Shape"></path>
                    </g>
                </g>
            </g>
        </g>
    </g>
</svg>