<?xml version="1.0" encoding="UTF-8"?>
<svg width="24px" height="24px" viewBox="0 0 24 24" version="1.1" xmlns="http://www.w3.org/2000/svg" xmlns:xlink="http://www.w3.org/1999/xlink">
    <!-- Generator: sketchtool 53 (72520) - https://sketchapp.com -->
    <title>3C90805C-5F5D-4B35-9FA5-DFF43B89C8E8</title>
    <desc>Created with sketchtool.</desc>
    <g id="mvp-&gt;=-1200" stroke="none" stroke-width="1" fill="none" fill-rule="evenodd" opacity="0.3">
        <g id="Home@1200" transform="translate(-1251.000000, -2845.000000)">
            <g id="footer" transform="translate(0.000000, 2676.000000)">
                <g id="social-media" transform="translate(1143.000000, 169.000000)">
                    <g id="iconfinder_instagram_2639840" transform="translate(108.000000, 0.000000)">
                        <rect id="Rectangle" fill="#FFFFFF" x="0" y="0" width="24" height="24"></rect>
                        <g id="iconfinder_38-instagram_1161953" transform="translate(4.800000, 4.800000)" fill="#000000" fill-rule="nonzero">
                            <path d="M7.2576,3.6576 C5.2416,3.6576 3.5712,5.2992 3.5712,7.344 C3.5712,9.3888 5.2128,11.0304 7.2576,11.0304 C9.3024,11.0304 10.944,9.36 10.944,7.344 C10.944,5.328 9.2736,3.6576 7.2576,3.6576 Z M7.2576,9.7056 C5.9616,9.7056 4.896,8.64 4.896,7.344 C4.896,6.048 5.9616,4.9824 7.2576,4.9824 C8.5536,4.9824 9.6192,6.048 9.6192,7.344 C9.6192,8.64 8.5536,9.7056 7.2576,9.7056 Z" id="Shape"></path>
                            <circle id="Oval" cx="11.088" cy="3.5712" r="1"></circle>
                            <path d="M13.248,1.4112 C12.4992,0.6336 11.4336,0.2304 10.224,0.2304 L4.2912,0.2304 C1.7856,0.2304 0.1152,1.9008 0.1152,4.4064 L0.1152,10.3104 C0.1152,11.5488 0.5184,12.6144 1.3248,13.392 C2.1024,14.1408 3.1392,14.5152 4.32,14.5152 L10.1952,14.5152 C11.4336,14.5152 12.4704,14.112 13.2192,13.392 C13.9968,12.6432 14.4,11.5776 14.4,10.3392 L14.4,4.4064 C14.4,3.1968 13.9968,2.16 13.248,1.4112 Z M13.1328,10.3392 C13.1328,11.232 12.816,11.952 12.2976,12.4416 C11.7792,12.9312 11.0592,13.1904 10.1952,13.1904 L4.32,13.1904 C3.456,13.1904 2.736,12.9312 2.2176,12.4416 C1.6992,11.9232 1.44,11.2032 1.44,10.3104 L1.44,4.4064 C1.44,3.5424 1.6992,2.8224 2.2176,2.304 C2.7072,1.8144 3.456,1.5552 4.32,1.5552 L10.2528,1.5552 C11.1168,1.5552 11.8368,1.8144 12.3552,2.3328 C12.8448,2.8512 13.1328,3.5712 13.1328,4.4064 L13.1328,10.3392 L13.1328,10.3392 Z" id="Shape"></path>
                        </g>
                    </g>
                </g>
            </g>
        </g>
    </g>
</svg>