<?xml version="1.0" encoding="UTF-8"?>
<svg width="36px" height="48px" viewBox="0 0 36 48" version="1.1" xmlns="http://www.w3.org/2000/svg" xmlns:xlink="http://www.w3.org/1999/xlink">
    <!-- Generator: sketchtool 53 (72520) - https://sketchapp.com -->
    <title>925D07F3-1878-49B7-8E6F-0708A82CEDB0</title>
    <desc>Created with sketchtool.</desc>
    <g id="mvp-&gt;=-1200" stroke="none" stroke-width="1" fill="none" fill-rule="evenodd">
        <g id="Quem-Somos-&gt;-Perfil-Lawyer@1200" transform="translate(-468.000000, -432.000000)" fill="#1ACE8A" fill-rule="nonzero">
            <g id="grupo-meritos" transform="translate(193.000000, 429.000000)">
                <g id="Group-18" transform="translate(269.000000, 3.000000)">
                    <g id="lighthouse" transform="translate(6.000000, 0.000000)">
                        <path d="M18,40.21875 C17.4825,40.21875 17.0625,40.63875 17.0625,41.15625 C17.0625,41.67375 17.4825,42.09375 18,42.09375 C18.5175,42.09375 18.9375,41.67375 18.9375,41.15625 C18.9375,40.63875 18.5175,40.21875 18,40.21875 Z" id="Path"></path>
                        <path d="M34.875,46.125 L32.0625,46.125 L32.0625,43.03125 C32.0625,41.4804375 30.8008125,40.21875 29.25,40.21875 L28.3125,40.21875 L28.3125,39.28125 C28.3125,38.0339063 27.4959375,36.9741563 26.369625,36.6070313 C26.2914375,35.7354375 24.709125,18.0921563 24.6336563,17.2510313 C25.6738125,16.8516563 26.4375,15.8397187 26.4375,14.625 C26.4375,13.402875 25.6536563,12.36075 24.5625,11.97375 L24.5625,7.5 L25.5,7.5 C26.0177813,7.5 26.4375,7.0801875 26.4375,6.5625 C26.4375,6.0448125 26.0177813,5.625 25.5,5.625 L24.4956562,5.625 C24.0471563,2.472 21.3368437,0 18,0 C14.6624063,0 11.95275,2.472375 11.5043437,5.625 L10.5,5.625 C9.98221875,5.625 9.5625,6.0448125 9.5625,6.5625 C9.5625,7.0801875 9.98221875,7.5 10.5,7.5 L11.4375,7.5 L11.4375,11.9721563 C10.3636875,12.351 9.5625,13.3812188 9.5625,14.625 C9.5625,15.8204063 10.3125937,16.8434063 11.3665312,17.2498125 C11.3297812,17.659125 9.66721875,36.1966875 9.63046875,36.6070313 C8.5040625,36.9741563 7.6875,38.0339063 7.6875,39.28125 L7.6875,40.21875 L6.75,40.21875 C5.1991875,40.21875 3.9375,41.4804375 3.9375,43.03125 L3.9375,46.125 L1.125,46.125 C0.60721875,46.125 0.1875,46.5448125 0.1875,47.0625 C0.1875,47.5801875 0.60721875,48 1.125,48 L34.875,48 C35.3927813,48 35.8125,47.5801875 35.8125,47.0625 C35.8125,46.5448125 35.3927813,46.125 34.875,46.125 Z M18,1.875 C20.2921875,1.875 22.1661563,3.50728125 22.5939375,5.625 L13.4061563,5.625 C13.83375,3.507375 15.7080937,1.875 18,1.875 Z M22.6875,7.5 L22.6875,11.8125 L18.9375,11.8125 L18.9375,7.5 L22.6875,7.5 Z M13.3125,7.5 L17.0625,7.5 L17.0625,11.8125 L13.3125,11.8125 L13.3125,7.5 Z M12.375,13.6875 L23.625,13.6875 C24.1419375,13.6875 24.5625,14.1080625 24.5625,14.625 C24.5625,15.1425937 24.1425938,15.5625 23.625,15.5625 L12.375,15.5625 C11.8580625,15.5625 11.4375,15.1419375 11.4375,14.625 C11.4375,14.1074063 11.8574063,13.6875 12.375,13.6875 Z M22.8141563,17.9536875 L23.2780312,23.125875 L12.2265,28.6516875 L12.733875,22.99425 L22.8141563,17.9536875 Z M12.93075,20.799375 L13.23225,17.4375 L19.6539375,17.4375 L12.93075,20.799375 Z M23.4579375,25.132125 L23.92275,30.315 L12.1448438,36.46875 L11.5253438,36.46875 L12.029625,30.8462812 L23.4579375,25.132125 Z M24.1040625,32.335875 L24.4746563,36.46875 L16.1939063,36.46875 L24.1040625,32.335875 Z M30.1875,46.125 L5.8125,46.125 L5.8125,43.03125 C5.8125,42.5143125 6.2330625,42.09375 6.75,42.09375 L14.210625,42.09375 C14.7284062,42.09375 15.148125,41.6739375 15.148125,41.15625 C15.148125,40.6385625 14.7284062,40.21875 14.210625,40.21875 L9.5625,40.21875 L9.5625,39.28125 C9.5625,38.7643125 9.9830625,38.34375 10.5,38.34375 L12.3730312,38.34375 C12.3739687,38.34375 12.3748125,38.3439375 12.37575,38.3439375 C12.3767812,38.3439375 12.3778125,38.34375 12.3788437,38.34375 L25.497,38.34375 C25.4976562,38.34375 25.4983125,38.3438437 25.4989687,38.3438437 C25.4994375,38.3438437 25.5,38.34375 25.5004687,38.34375 C26.0172187,38.3440313 26.4375,38.7645 26.4375,39.28125 L26.4375,40.21875 L21.789375,40.21875 C21.2715938,40.21875 20.851875,40.6385625 20.851875,41.15625 C20.851875,41.6739375 21.2715938,42.09375 21.789375,42.09375 L29.25,42.09375 C29.7669375,42.09375 30.1875,42.5143125 30.1875,43.03125 L30.1875,46.125 Z" id="Shape"></path>
                        <path d="M35.4136875,18.6263438 L29.0124375,15.9750938 C28.5340312,15.7771875 27.9855938,16.00425 27.7875937,16.4825625 C27.5895,16.960875 27.8166563,17.5093125 28.2949687,17.7074063 L34.6962187,20.3586562 C35.1765937,20.5573125 35.723625,20.328 35.9210625,19.8511875 C36.1191563,19.3727812 35.892,18.8244375 35.4136875,18.6263438 Z" id="Path"></path>
                        <path d="M35.9211563,5.6488125 C35.7230625,5.1703125 35.174625,4.9434375 34.6963125,5.14134375 L28.2950625,7.79259375 C27.8166562,7.9906875 27.5895937,8.539125 27.7876875,9.0174375 C27.9855,9.49490625 28.533,9.723375 29.0125313,9.52490625 L35.4137812,6.87365625 C35.8920938,6.6755625 36.11925,6.127125 35.9211563,5.6488125 Z" id="Path"></path>
                        <path d="M33,11.8125 L29.25,11.8125 C28.7322187,11.8125 28.3125,12.2323125 28.3125,12.75 C28.3125,13.2676875 28.7322187,13.6875 29.25,13.6875 L33,13.6875 C33.5177812,13.6875 33.9375,13.2676875 33.9375,12.75 C33.9375,12.2323125 33.5177812,11.8125 33,11.8125 Z" id="Path"></path>
                        <path d="M7.70503125,7.7926875 L1.30378125,5.1414375 C0.82528125,4.94353125 0.27703125,5.1705 0.0789375,5.64890625 C-0.11915625,6.1273125 0.108,6.67565625 0.5863125,6.87375 L6.9875625,9.525 C7.46784375,9.72365625 8.01496875,9.49434375 8.21240625,9.01753125 C8.4105,8.539125 8.18334375,7.99078125 7.70503125,7.7926875 Z" id="Path"></path>
                        <path d="M8.2123125,16.4825625 C8.01421875,16.00425 7.4656875,15.7772813 6.98746875,15.9750938 L0.58621875,18.6263438 C0.10790625,18.8244375 -0.11925,19.372875 0.07884375,19.8511875 C0.27665625,20.3288438 0.82434375,20.5570313 1.3036875,20.3586563 L7.7049375,17.7074063 C8.18334375,17.5093125 8.41040625,16.960875 8.2123125,16.4825625 Z" id="Path"></path>
                        <path d="M6.75,11.8125 L3,11.8125 C2.48221875,11.8125 2.0625,12.2323125 2.0625,12.75 C2.0625,13.2676875 2.48221875,13.6875 3,13.6875 L6.75,13.6875 C7.26778125,13.6875 7.6875,13.2676875 7.6875,12.75 C7.6875,12.2323125 7.26778125,11.8125 6.75,11.8125 Z" id="Path"></path>
                    </g>
                </g>
            </g>
        </g>
    </g>
</svg>