<?xml version="1.0" encoding="UTF-8"?>
<svg width="24px" height="24px" viewBox="0 0 24 24" version="1.1" xmlns="http://www.w3.org/2000/svg" xmlns:xlink="http://www.w3.org/1999/xlink">
    <!-- Generator: sketchtool 53 (72520) - https://sketchapp.com -->
    <title>736E2BB8-50D3-4AB3-9EEF-3C2C7094FAD1</title>
    <desc>Created with sketchtool.</desc>
    <g id="mvp-&gt;=-1200" stroke="none" stroke-width="1" fill="none" fill-rule="evenodd" opacity="0.3">
        <g id="Home@1200" transform="translate(-1179.000000, -2845.000000)" fill="#FFFFFF">
            <g id="footer" transform="translate(0.000000, 2676.000000)">
                <g id="social-media" transform="translate(1143.000000, 169.000000)">
                    <g id="iconfinder_linkedin_square_black_107092" transform="translate(36.000000, 0.000000)">
                        <path d="M18.7348,17.6548 L18.7348,12.97 C18.7348,10.46 17.3948,9.292 15.6084,9.292 C14.1668,9.292 13.5208,10.0852 13.1608,10.6416 L13.1608,9.484 L10.4448,9.484 C10.4808,10.2508 10.4448,17.6548 10.4448,17.6548 L13.1608,17.6548 L13.1608,13.0916 C13.1608,12.848 13.1784,12.604 13.2504,12.4296 C13.4464,11.9416 13.8932,11.4364 14.6432,11.4364 C15.6264,11.4364 16.0192,12.1856 16.0192,13.2836 L16.0192,17.6552 L18.7348,17.6552 L18.7348,17.6548 Z M7.5836,8.3688 C8.5304,8.3688 9.1204,7.7408 9.1204,6.9564 C9.1028,6.1552 8.5304,5.5452 7.6016,5.5452 C6.6728,5.5452 6.0652,6.1548 6.0652,6.9564 C6.0652,7.7408 6.6548,8.3688 7.5664,8.3688 L7.5836,8.3688 Z M8.9416,17.6548 L8.9416,9.484 L6.226,9.484 L6.226,17.6548 L8.9416,17.6548 Z M0,0 L24,0 L24,24 L0,24 L0,0 Z" id="Shape"></path>
                    </g>
                </g>
            </g>
        </g>
    </g>
</svg>