<?xml version="1.0" encoding="UTF-8"?>
<svg width="24px" height="32px" viewBox="0 0 24 32" version="1.1" xmlns="http://www.w3.org/2000/svg" xmlns:xlink="http://www.w3.org/1999/xlink">
    <!-- Generator: sketchtool 53 (72520) - https://sketchapp.com -->
    <title>66CD7E7A-5515-4F98-83D0-76F30F644032</title>
    <desc>Created with sketchtool.</desc>
    <g id="mvp-&gt;=-1200" stroke="none" stroke-width="1" fill="none" fill-rule="evenodd">
        <g id="Atuação@1200-ii" transform="translate(-850.000000, -753.000000)" fill="#1ACE8A" fill-rule="nonzero">
            <g id="areas-section" transform="translate(0.000000, 123.000000)">
                <g id="Group-2" transform="translate(167.000000, 400.000000)">
                    <g id="peersons-line">
                        <g id="person-card" transform="translate(570.000000, 0.000000)">
                            <g id="certificate" transform="translate(113.000000, 230.000000)">
                                <path d="M23.6612025,11.3831634 L21.4789099,8.03842729 L20.656416,4.128735 C20.565329,3.69824044 20.2286324,3.36154391 19.7992223,3.27154121 L15.8895299,2.4501318 L12.5447938,0.266754806 C12.1761083,0.0260248905 11.6989859,0.0260248905 11.3303005,0.266754806 L7.98556437,2.4501318 L4.07587194,3.27154121 C3.64537738,3.3626282 3.30976529,3.69932488 3.21867829,4.128735 L2.39618431,8.03842729 L0.213891749,11.3831634 C-0.0257537288,11.7518489 -0.0257537288,12.2278869 0.213891749,12.5965724 L2.39618431,15.9413085 L3.21867829,19.8510009 C3.30976529,20.2814955 3.64646182,20.618192 4.07587194,20.7081946 L5.27518405,20.959226 L5.27518405,30.8660211 C5.27518405,31.2677798 5.49259999,31.638634 5.84501999,31.835447 C6.19472895,32.0317179 6.62305477,32.0230429 6.96842626,31.812133 L11.9375471,28.7531282 L16.9077524,31.8110487 C17.0866732,31.9211121 17.2872816,31.976415 17.4895164,31.976415 C17.6760278,31.976415 17.8625393,31.929787 18.0300743,31.835447 C18.3824943,31.638634 18.5999102,31.2677798 18.5999102,30.8660211 L18.5999102,20.959226 L19.7981379,20.7071103 C20.2286324,20.6160233 20.5642447,20.2793266 20.6553317,19.8499165 L21.4778255,15.9402242 L23.6601181,12.5954881 C23.8997637,12.2268026 23.8997637,11.7518489 23.6612025,11.3831634 L23.6612025,11.3831634 Z M16.3791225,28.8783728 L12.5193111,26.5030625 C12.1620116,26.2834778 11.7119984,26.2834778 11.3546988,26.5030625 L7.49597174,28.8783728 L7.49597174,21.4265891 L7.98556437,21.5296041 L11.3303005,23.7129811 C11.5146432,23.8328039 11.7266374,23.8929864 11.9375471,23.8929864 C12.1484569,23.8929864 12.360451,23.8328039 12.5447938,23.7118967 L15.8895299,21.5285197 L16.3791225,21.4265891 L16.3791225,28.8783728 Z M19.5037318,14.9019409 C19.4294524,15.0174261 19.3763184,15.1448395 19.3470404,15.2793013 L18.6308147,18.6825933 L15.2264382,19.398819 C15.0919764,19.4270127 14.9645632,19.4801467 14.8479935,19.5555104 L11.9375471,21.4564092 L9.02601645,19.5565947 C8.91053105,19.481231 8.78203336,19.428097 8.64757161,19.3999034 L5.24319513,18.6836777 L4.52696944,15.2803857 C4.49877585,15.1459239 4.44564184,15.0185106 4.37027816,14.9030253 L2.47154799,11.9893257 L4.37136246,9.07671063 C4.44564184,8.96122537 4.49877585,8.83381198 4.52805388,8.69935023 L5.24427956,5.29605818 L8.64865604,4.5798325 C8.7831178,4.55163877 8.91053105,4.49850476 9.02710075,4.42314108 L11.9375471,2.52224231 L14.8490778,4.42205678 C14.9645632,4.49742046 15.0930609,4.55055447 15.2275226,4.57874806 L18.6318991,5.29497375 L19.3481248,8.69826579 C19.3763184,8.83272754 19.4294524,8.96014093 19.5048161,9.0756262 L21.4035463,11.9893257 L19.5037318,14.9019409 Z" id="Shape"></path>
                                <path d="M11.9375471,5.32696267 C8.26316283,5.32696267 5.27518405,8.31494145 5.27518405,11.9893257 C5.27518405,15.66371 8.26316283,18.6516888 11.9375471,18.6516888 C15.6119314,18.6516888 18.5999102,15.66371 18.5999102,11.9893257 C18.5999102,8.31494145 15.6119314,5.32696267 11.9375471,5.32696267 Z M11.9375471,16.4309011 C9.4879575,16.4309011 7.49597174,14.4389154 7.49597174,11.9893257 C7.49597174,9.53973612 9.4879575,7.54775036 11.9375471,7.54775036 C14.3871367,7.54775036 16.3791225,9.53973612 16.3791225,11.9893257 C16.3791225,14.4389154 14.3871367,16.4309011 11.9375471,16.4309011 Z" id="Shape"></path>
                            </g>
                        </g>
                    </g>
                </g>
            </g>
        </g>
    </g>
</svg>