<?xml version="1.0" encoding="UTF-8"?>
<svg width="48px" height="48px" viewBox="0 0 48 48" version="1.1" xmlns="http://www.w3.org/2000/svg" xmlns:xlink="http://www.w3.org/1999/xlink">
    <!-- Generator: sketchtool 53 (72520) - https://sketchapp.com -->
    <title>6DC42355-2136-4688-AE53-AEF9A7D986FD</title>
    <desc>Created with sketchtool.</desc>
    <g id="mvp-&gt;=-1200" stroke="none" stroke-width="1" fill="none" fill-rule="evenodd">
        <g id="Quem-Somos-&gt;-Perfil-Lawyer@1200" transform="translate(-730.000000, -432.000000)" fill="#1ACE8A" fill-rule="nonzero">
            <g id="grupo-meritos" transform="translate(193.000000, 429.000000)">
                <g id="Group-18" transform="translate(537.000000, 3.000000)">
                    <g id="steering-wheel">
                        <path d="M24,11.2 C16.9308,11.2 11.2,16.9308 11.2,24 C11.2,31.0692 16.9308,36.8 24,36.8 C31.0692,36.8 36.8,31.0692 36.8,24 C36.7916,16.9342 31.0658,11.2084 24,11.2 Z M35.1592,23.2 L30.3448,23.2 C30.2021,22.0623 29.7546,20.9843 29.0496,20.08 L32.4544,16.6752 C34.0402,18.499 34.9896,20.7892 35.1592,23.2 Z M24.8,12.8408 C27.2103,13.0108 29.4999,13.9601 31.3232,15.5456 L27.92,18.9504 C27.0157,18.2454 25.9377,17.7979 24.8,17.6552 L24.8,12.8408 Z M23.2,12.8408 L23.2,17.6552 C22.0623,17.7979 20.9843,18.2454 20.08,18.9504 L16.6752,15.5456 C18.499,13.9598 20.7892,13.0104 23.2,12.8408 Z M15.5456,16.6768 L18.9504,20.08 C18.2454,20.9843 17.7979,22.0623 17.6552,23.2 L12.8408,23.2 C13.0108,20.7897 13.9601,18.5001 15.5456,16.6768 Z M12.8408,24.8 L17.6552,24.8 C17.7979,25.9377 18.2454,27.0157 18.9504,27.92 L15.5456,31.3248 C13.9598,29.501 13.0104,27.2108 12.8408,24.8 Z M23.2,35.1592 C20.7897,34.9892 18.5002,34.0399 16.6768,32.4544 L20.08,29.0496 C20.9843,29.7546 22.0623,30.2021 23.2,30.3448 L23.2,35.1592 Z M19.2,24 C19.2,21.349 21.349,19.2 24,19.2 C26.651,19.2 28.8,21.349 28.8,24 C28.7974,26.6499 26.6499,28.7974 24,28.8 C21.349,28.8 19.2,26.651 19.2,24 Z M24.8,35.1592 L24.8,30.3448 C25.9377,30.2021 27.0157,29.7546 27.92,29.0496 L31.3248,32.4544 C29.501,34.0402 27.2108,34.9896 24.8,35.1592 Z M32.4544,31.3232 L29.0496,27.92 C29.7546,27.0157 30.2021,25.9377 30.3448,24.8 L35.1592,24.8 C34.9892,27.2103 34.0399,29.4998 32.4544,31.3232 Z" id="Shape"></path>
                        <path d="M24,20.8 C22.2327,20.8 20.8,22.2327 20.8,24 C20.8,25.7673 22.2327,27.2 24,27.2 C25.7673,27.2 27.2,25.7673 27.2,24 C27.2,22.2327 25.7673,20.8 24,20.8 Z M24,25.6 C23.1163,25.6 22.4,24.8837 22.4,24 C22.4,23.1163 23.1163,22.4 24,22.4 C24.8837,22.4 25.6,23.1163 25.6,24 C25.6,24.8837 24.8837,25.6 24,25.6 Z" id="Shape"></path>
                        <path d="M45.6,21.6 L42.4,21.6 C42.3345,21.6 42.2692,21.6081 42.2056,21.624 L39.892,22.2024 C39.5543,19.2166 38.378,16.3874 36.4992,14.0424 L38.5536,12.8096 C38.6098,12.7761 38.6616,12.7358 38.708,12.6896 L40.9704,10.4272 C41.9077,9.49 41.9079,7.9704 40.9707,7.0331 C40.9706,7.033 40.9705,7.0329 40.9704,7.0328 C40.0211,6.1256 38.5261,6.1256 37.5768,7.0328 L35.3136,9.2952 C35.2674,9.3416 35.2271,9.3934 35.1936,9.4496 L33.9608,11.504 C31.6158,9.6252 28.7866,8.4489 25.8008,8.1112 L26.3792,5.7976 C26.3943,5.7329 26.4013,5.6665 26.4,5.6 L26.4,2.4 C26.4,1.0745 25.3255,0 24,0 C22.6745,0 21.6,1.0745 21.6,2.4 L21.6,5.6 C21.6,5.6655 21.6081,5.7308 21.624,5.7944 L22.2024,8.108 C19.2166,8.4457 16.3874,9.622 14.0424,11.5008 L12.8096,9.4464 C12.7761,9.3902 12.7358,9.3384 12.6896,9.292 L10.424,7.0296 C9.4743,6.1227 7.9794,6.1227 7.0296,7.0296 C6.0927,7.9668 6.0927,9.486 7.0296,10.4232 L9.292,12.6864 C9.3384,12.7326 9.3902,12.7729 9.4464,12.8064 L11.5008,14.0392 C9.622,16.3842 8.4457,19.2134 8.108,22.1992 L5.7944,21.624 C5.7308,21.6081 5.6655,21.6 5.6,21.6 L2.4,21.6 C1.0745,21.6 0,22.6745 0,24 C0,25.3255 1.0745,26.4 2.4,26.4 L5.6,26.4 C5.6655,26.4 5.7308,26.3919 5.7944,26.376 L8.108,25.7976 C8.4457,28.7834 9.622,31.6126 11.5008,33.9576 L9.4464,35.1904 C9.3902,35.2239 9.3384,35.2642 9.292,35.3104 L7.0296,37.576 C6.0846,38.5055 6.0721,40.025 7.0015,40.97 C7.931,41.915 9.4505,41.9275 10.3955,40.9981 C10.4048,40.989 10.414,40.9797 10.4232,40.9704 L12.6864,38.708 C12.7326,38.6616 12.7729,38.6098 12.8064,38.5536 L14.0392,36.4992 C16.3842,38.378 19.2134,39.5543 22.1992,39.892 L21.6208,42.2056 C21.6059,42.2693 21.599,42.3346 21.6,42.4 L21.6,45.6 C21.6,46.9255 22.6745,48 24,48 C25.3255,48 26.4,46.9255 26.4,45.6 L26.4,42.4 C26.4,42.3345 26.3919,42.2692 26.376,42.2056 L25.7976,39.892 C28.7834,39.5543 31.6126,38.378 33.9576,36.4992 L35.1904,38.5536 C35.2239,38.6098 35.2642,38.6616 35.3104,38.708 L37.5728,40.9704 C38.5023,41.9154 40.0218,41.9279 40.9668,40.9984 C41.9118,40.0689 41.9243,38.5494 40.9948,37.6044 C40.9857,37.5951 40.9765,37.5859 40.9672,37.5768 L38.7048,35.3136 C38.6584,35.2674 38.6066,35.2271 38.5504,35.1936 L36.496,33.9608 C38.3748,31.6158 39.5511,28.7866 39.8888,25.8008 L42.2024,26.3792 C42.2671,26.3943 42.3335,26.4013 42.4,26.4 L45.6,26.4 C46.9255,26.4 48,25.3255 48,24 C48,22.6745 46.9255,21.6 45.6,21.6 Z M8,24.1752 L5.5016,24.8 L2.4,24.8 C1.9582,24.8 1.6,24.4418 1.6,24 C1.6,23.5582 1.9582,23.2 2.4,23.2 L5.5016,23.2 L8,23.8248 L8,24.1752 Z M36.5144,10.3536 L38.708,8.16 C39.0242,7.8571 39.523,7.8571 39.8392,8.16 C40.151,8.4723 40.151,8.9781 39.8392,9.2904 L37.6464,11.484 L35.44,12.8104 L35.192,12.5624 L36.5144,10.3536 Z M23.2,2.4 C23.2,1.9582 23.5582,1.6 24,1.6 C24.4418,1.6 24.8,1.9582 24.8,2.4 L24.8,5.5016 L24.1752,8 L23.8248,8 L23.2,5.5016 L23.2,2.4 Z M10.3536,11.4832 L8.16,9.292 C7.8477,8.9796 7.8477,8.4732 8.16,8.1608 C8.4761,7.8584 8.9743,7.8584 9.2904,8.1608 L11.484,10.3536 L12.8104,12.56 L12.5624,12.808 L10.3536,11.4832 Z M11.4856,37.6464 L9.292,39.84 C8.9758,40.1429 8.477,40.1429 8.1608,39.84 C7.849,39.5277 7.849,39.0219 8.1608,38.7096 L10.3536,36.516 L12.56,35.1896 L12.808,35.4376 L11.4856,37.6464 Z M24.8,45.6 C24.8,46.0418 24.4418,46.4 24,46.4 C23.5582,46.4 23.2,46.0418 23.2,45.6 L23.2,42.4984 L23.8248,40 L24.1752,40 L24.8,42.4984 L24.8,45.6 Z M37.6464,36.5168 L39.84,38.708 C40.1523,39.0204 40.1523,39.5268 39.84,39.8392 C39.5239,40.1416 39.0257,40.1416 38.7096,39.8392 L36.516,37.6464 L35.1896,35.44 L35.4376,35.192 L37.6464,36.5168 Z M24,38.4 C16.0471,38.4 9.6,31.9529 9.6,24 C9.6,16.0471 16.0471,9.6 24,9.6 C31.9529,9.6 38.4,16.0471 38.4,24 C38.3907,31.9491 31.9491,38.3907 24,38.4 Z M45.6,24.8 L42.4984,24.8 L40,24.1752 L40,23.828 L42.4984,23.2 L45.6,23.2 C46.0418,23.2 46.4,23.5582 46.4,24 C46.4,24.4418 46.0418,24.8 45.6,24.8 Z" id="Shape"></path>
                    </g>
                </g>
            </g>
        </g>
    </g>
</svg>