<?xml version="1.0" encoding="UTF-8"?>
<svg width="44px" height="48px" viewBox="0 0 44 48" version="1.1" xmlns="http://www.w3.org/2000/svg" xmlns:xlink="http://www.w3.org/1999/xlink">
    <!-- Generator: sketchtool 53 (72520) - https://sketchapp.com -->
    <title>9457786B-72C0-4689-A726-1A52607B5E8A</title>
    <desc>Created with sketchtool.</desc>
    <g id="mvp-&gt;=-1200" stroke="none" stroke-width="1" fill="none" fill-rule="evenodd">
        <g id="Quem-Somos-&gt;-Perfil-Lawyer@1200" transform="translate(-998.000000, -429.000000)" fill="#1ACC89" fill-rule="nonzero">
            <g id="grupo-meritos" transform="translate(193.000000, 429.000000)">
                <g id="Group-25" transform="translate(805.000000, 0.000000)">
                    <g id="ship">
                        <path d="M21.7076959,38.0762573 C21.1910175,38.0762573 20.7720234,38.4951579 20.7720234,39.0119298 L20.7720234,39.0340117 C20.7720234,39.5507836 21.1910175,39.9696842 21.7076959,39.9696842 C22.2244678,39.9696842 22.6433684,39.5507836 22.6433684,39.0340117 L22.6433684,39.0119298 C22.6433684,38.4951579 22.2244678,38.0762573 21.7076959,38.0762573 Z" id="Path"></path>
                        <path d="M42.4116023,46.0349942 C41.0420585,46.0349942 39.7659883,45.2982456 39.0813567,44.1122807 C38.9142456,43.8227836 38.6052865,43.6444444 38.2710643,43.6444444 C37.9367485,43.6444444 37.6277895,43.8227836 37.4607719,44.1122807 C36.829848,45.2050526 35.6967485,45.9148538 34.4512749,46.020117 C36.2324211,42.5716959 37.8443977,38.201076 39.1393684,34.1896608 C39.1571462,34.1456842 39.1720234,34.1009591 39.1827836,34.0553918 C39.6126316,32.7195322 40.0068304,31.4255906 40.3600468,30.2206316 C40.3676257,30.1984561 40.3738012,30.1759064 40.3797895,30.1534503 C40.794386,28.7373099 41.1519064,27.446269 41.4433684,26.3586433 C41.5298246,26.0357427 41.4374737,25.6912281 41.2012164,25.4547836 C38.7439532,22.997614 35.7664561,20.5818947 32.6294269,18.4470643 L32.4075789,11.2576374 C32.3717427,10.1075088 31.4583392,9.20664327 30.3282339,9.20664327 L26.4167485,9.20664327 L26.0141287,4.8534269 C26.0128187,4.83218713 26.0110409,4.8111345 26.0082339,4.79026901 L25.7195789,1.66830409 C25.6316257,0.717192982 24.8792515,0 23.9694035,0 L19.4461754,0 C18.5364211,0 17.7840468,0.717192982 17.696,1.66830409 L17.4071579,4.79092398 C17.404538,4.8111345 17.4027602,4.83162573 17.4014503,4.85221053 L16.9987368,9.20654971 L13.0874386,9.20654971 C11.9569591,9.20654971 11.0436491,10.1076023 11.0080936,11.2578246 L10.786152,18.4469708 C7.64912281,20.5818947 4.67153216,22.9975205 2.21436257,25.4547836 C1.97810526,25.6911345 1.88566082,26.0357427 1.97221053,26.3586433 C2.26245614,27.4416842 2.6180117,28.7258947 3.03017544,30.1339883 C3.03728655,30.164117 3.04617544,30.1939649 3.05637427,30.2235322 C3.40930994,31.4269942 3.80294737,32.7191579 4.23204678,34.0529591 C4.24299415,34.0998363 4.25815205,34.1457778 4.2765848,34.1909708 C5.57183626,38.2026667 7.18362573,42.5723509 8.96439766,46.0200234 C7.71892398,45.9148538 6.58591813,45.2050526 5.95508772,44.1122807 C5.78807018,43.8227836 5.47920468,43.6444444 5.14479532,43.6443509 C4.8105731,43.6443509 4.50161404,43.8226901 4.33450292,44.1121871 C3.64977778,45.2982456 2.37352047,46.0349942 1.00397661,46.0349942 C0.487204678,46.0349942 0.0683040936,46.4538947 0.0683040936,46.9706667 C0.0683040936,47.4874386 0.487298246,47.9063392 1.00397661,47.9063392 C2.58273684,47.9063392 4.07803509,47.2477193 5.14470175,46.1297778 C6.21118129,47.2478129 7.7065731,47.9065263 9.28552047,47.9065263 C9.75410526,47.9065263 10.2150175,47.8478596 10.6596491,47.737076 C10.6814503,47.7323977 10.7030643,47.7269708 10.7245848,47.7206082 C11.7534503,47.4515088 12.691462,46.899462 13.4263392,46.1292164 C14.4928187,47.2474386 15.988117,47.9065263 17.5670643,47.9065263 C19.1459181,47.9065263 20.6411228,47.2479064 21.7076023,46.1299649 C22.774269,47.248 24.2696608,47.9067135 25.8484211,47.9067135 C27.4273684,47.9067135 28.9224795,47.2476257 29.9892398,46.1294035 C30.7191579,46.8945965 31.6496842,47.4445848 32.6705029,47.7155556 C32.7034386,47.7260351 32.736655,47.7341754 32.7700585,47.7408187 C33.210386,47.8492632 33.6664327,47.9066199 34.1298713,47.9066199 C35.7088187,47.9066199 37.2042105,47.2479064 38.2708772,46.1298713 C39.3373567,47.2478129 40.832655,47.9064327 42.4115088,47.9064327 C42.9282807,47.9064327 43.3471813,47.4875322 43.3471813,46.9707602 C43.3472749,46.4538947 42.9284678,46.0349942 42.4116023,46.0349942 Z M31.2701754,19.7835789 C34.2572164,21.7917193 37.1085848,24.0694269 39.494269,26.3988772 C39.3378246,26.9755322 39.1647251,27.6013099 38.9765614,28.2649825 C34.8655906,24.8641871 27.6109474,19.7341754 22.643462,17.4598363 L22.6433684,14.9687018 C25.4008889,16.1787135 28.3131696,17.8075322 31.1121404,19.677193 C31.1609825,19.7178012 31.2137544,19.7534503 31.2701754,19.7835789 Z M19.5565848,1.87134503 L23.8591813,1.87134503 L24.0538012,3.97614035 L19.3617778,3.97614035 L19.5565848,1.87134503 Z M19.1887719,5.84748538 L24.2269006,5.84748538 L24.5375439,9.20654971 L18.8781287,9.20654971 L19.1887719,5.84748538 Z M12.8785965,11.3155556 C12.882152,11.1987836 12.9613099,11.0778947 13.0874386,11.0778947 L17.8517895,11.0778947 L25.5636023,11.0778947 L25.5655673,11.0778947 L30.3282339,11.0778947 C30.4543626,11.0778947 30.5334269,11.1988772 30.537076,11.3155556 L30.7184094,17.1941053 C27.8190409,15.3636491 24.8475322,13.8054737 22.0748538,12.701193 C22.0720468,12.6999766 22.0691462,12.6989474 22.0663392,12.697731 C22.0619415,12.6959532 22.0575439,12.6940819 22.0532398,12.6923977 C22.0452865,12.6893099 22.0371462,12.6870643 22.0292865,12.6841637 C22.0111345,12.6775205 21.9929825,12.6708772 21.9743626,12.6653567 C21.9631345,12.6619883 21.9518129,12.6595556 21.9404912,12.656655 C21.9229006,12.6521637 21.9054971,12.6473918 21.8875322,12.6439298 C21.8725614,12.6410292 21.8575906,12.6392515 21.8425263,12.6370994 C21.8280234,12.6350409 21.8135205,12.6323275 21.7988304,12.630924 C21.7381988,12.6249357 21.6770058,12.6249357 21.6163743,12.630924 C21.6015906,12.6323275 21.5872749,12.6350409 21.5726784,12.6370994 C21.5577076,12.6392515 21.5425497,12.6410292 21.5275789,12.6439298 C21.5097076,12.6474854 21.4922105,12.6521637 21.4747135,12.656655 C21.4633918,12.6595556 21.4519766,12.6619883 21.4408421,12.6653567 C21.4222222,12.6708772 21.4040702,12.6775205 21.3860117,12.6841637 C21.3779649,12.6870643 21.3699181,12.6893099 21.3620585,12.6923977 C21.3576608,12.6941754 21.3532632,12.6960468 21.3488655,12.697731 C21.346152,12.6988538 21.3431579,12.6999766 21.3404444,12.701193 C18.5677661,13.8053801 15.5964444,15.3635556 12.697076,17.1940117 L12.8785965,11.3155556 Z M3.92130994,26.3988772 C6.30615205,24.0701754 9.15649123,21.7932164 12.1424094,19.7856374 C12.2001404,19.7552281 12.2539415,19.7184561 12.3038129,19.6770058 C15.1026901,17.807345 18.0146901,16.1786199 20.772117,14.9687018 L20.772117,17.4597427 C15.8046316,19.7340819 8.55017544,24.864 4.43901754,28.2647953 C4.25094737,27.6013099 4.07794152,26.9756257 3.92130994,26.3988772 Z M32.5172398,45.6768187 C31.8081871,45.3483041 31.2016842,44.8086082 30.7996257,44.1123743 C30.7980351,44.1094737 30.7959766,44.1068538 30.7941053,44.1039532 C30.784,44.0866433 30.7727719,44.0699883 30.7613567,44.0533333 C30.7551813,44.0440702 30.7490994,44.0346199 30.7425497,44.0256374 C30.7316023,44.0108538 30.7198129,43.9966316 30.7080234,43.9824094 C30.6996959,43.9724912 30.6917427,43.9621988 30.6830409,43.952655 C30.6728421,43.9413333 30.6617076,43.9306667 30.6508538,43.9198129 C30.6395322,43.9083977 30.6283041,43.8967953 30.6164211,43.8860351 C30.6074386,43.8778947 30.5977076,43.8703158 30.5882573,43.8625497 C30.5735673,43.8502924 30.5588772,43.8380351 30.5435322,43.8267135 C30.534924,43.8204444 30.525848,43.8147368 30.5170526,43.808655 C30.5000234,43.7970526 30.4830877,43.7856374 30.4653099,43.7752515 C30.4625965,43.7735673 30.4599766,43.7715088 30.457076,43.7699181 C30.4497778,43.7657076 30.4420117,43.7624327 30.4345263,43.7584094 C30.4179649,43.7494269 30.4014971,43.7407251 30.3845614,43.7328655 C30.3712749,43.7266901 30.3579883,43.7212632 30.3445146,43.7156491 C30.3304795,43.709848 30.3162573,43.7041404 30.3019415,43.6989942 C30.2860351,43.6933801 30.2699415,43.6884211 30.253848,43.6836491 C30.2414035,43.68 30.2290526,43.6763509 30.2166082,43.6732632 C30.1992047,43.6689591 30.1818012,43.6653099 30.1643041,43.6619415 C30.1521404,43.6596023 30.1399766,43.6573567 30.1277193,43.6555789 C30.1105029,43.6530526 30.0933801,43.6510877 30.0761637,43.6494971 C30.0627836,43.6481871 30.0494971,43.6472515 30.0359298,43.6465029 C30.0202105,43.6457544 30.0044912,43.6454737 29.9886784,43.6454737 C29.9735205,43.6454737 29.9583626,43.6457544 29.9431111,43.6465029 C29.9292632,43.6471579 29.9152281,43.6482807 29.9013801,43.6495906 C29.8846316,43.6511813 29.8680702,43.6530526 29.8514152,43.6555789 C29.8385965,43.6574503 29.8260585,43.6597895 29.8132398,43.6622222 C29.7962105,43.6654971 29.779462,43.6690526 29.7625263,43.6732632 C29.7494269,43.676538 29.7367018,43.6802807 29.723883,43.6840234 C29.7081637,43.6887018 29.692538,43.6934737 29.6770058,43.6989942 C29.6623158,43.7042339 29.6477193,43.7101287 29.6332164,43.7160234 C29.6202105,43.7214503 29.6071111,43.7267836 29.5941988,43.7327719 C29.577076,43.7407251 29.5604211,43.749614 29.5436725,43.7585965 C29.5363743,43.7626199 29.5287018,43.7658012 29.5214035,43.7700117 C29.5185029,43.7716959 29.5159766,43.7736608 29.5131696,43.775345 C29.4953918,43.785731 29.4784561,43.7972398 29.4614269,43.8088421 C29.452538,43.8148304 29.4435556,43.820538 29.4349474,43.826807 C29.4196023,43.8381287 29.4049123,43.850386 29.3901287,43.8627368 C29.3806784,43.8705029 29.3709474,43.8780819 29.3619649,43.8862222 C29.3500819,43.8969825 29.3388538,43.9085848 29.3275322,43.92 C29.3166784,43.9308538 29.3056374,43.9415205 29.295345,43.9528421 C29.2866433,43.962386 29.2787836,43.9725848 29.2704561,43.9825965 C29.2586667,43.9968187 29.2467836,44.0110409 29.2358363,44.0258246 C29.2292865,44.034807 29.2232047,44.0442573 29.2170292,44.0535205 C29.2057076,44.0701754 29.1944795,44.0868304 29.1842807,44.1041404 C29.1824094,44.1070409 29.1804444,44.1096608 29.1787602,44.1125614 C28.4940351,45.2986199 27.2177778,46.0353684 25.8482339,46.0353684 C24.4786901,46.0353684 23.2026199,45.2985263 22.5177076,44.1123743 C22.3506901,43.8228772 22.041731,43.644538 21.7074152,43.644538 C21.373193,43.644538 21.0642339,43.8228772 20.8971228,44.1123743 C20.2125848,45.2983392 18.9364211,46.0350877 17.5668772,46.0350877 C16.1973333,46.0350877 14.9212632,45.2983392 14.2364444,44.1122807 C14.2347602,44.1094737 14.2327953,44.1069474 14.2311111,44.1042339 C14.2207251,44.0865497 14.2093099,44.0694269 14.1977076,44.0523041 C14.1915322,44.0434152 14.1858246,44.0343392 14.1796491,44.025731 C14.1685146,44.0105731 14.1562573,43.9960702 14.1441871,43.9814737 C14.1361404,43.9719298 14.1284678,43.9619181 14.1200468,43.952655 C14.1096608,43.9410526 14.0983392,43.9301988 14.0872047,43.9191579 C14.0759766,43.9080234 14.0650292,43.8966082 14.0534269,43.8861287 C14.0441637,43.8778012 14.0343392,43.8701287 14.0247953,43.8621754 C14.0101988,43.8500117 13.9956023,43.837848 13.9803509,43.8266199 C13.9717427,43.8203509 13.9626667,43.8145497 13.9536842,43.8084678 C13.936655,43.7968655 13.9197193,43.7855439 13.9021287,43.7750643 C13.8992281,43.7734737 13.8967018,43.7714152 13.8938947,43.769731 C13.8865965,43.7655205 13.878924,43.7622456 13.8714386,43.7582222 C13.8547836,43.7492398 13.8382222,43.7404444 13.821193,43.7324912 C13.8080936,43.7264094 13.7950877,43.721076 13.7818947,43.7156491 C13.7674854,43.7096608 13.7529825,43.7038596 13.738386,43.6986199 C13.7227602,43.6930994 13.7071345,43.6883275 13.6914152,43.6836491 C13.6785029,43.6798129 13.6656842,43.6760702 13.6526784,43.6727953 C13.6358363,43.6686784 13.6191813,43.6650292 13.6023392,43.661848 C13.5894269,43.6594152 13.5765146,43.6569825 13.5635088,43.6551111 C13.5471345,43.6526784 13.5307602,43.650807 13.5144795,43.6493099 C13.5002573,43.6479064 13.485848,43.6467836 13.4715322,43.6461287 C13.4568421,43.6453801 13.442152,43.6450994 13.4273684,43.6450994 C13.4110877,43.6450994 13.3947135,43.6453801 13.3784327,43.6462222 C13.365614,43.6468772 13.353076,43.6479064 13.3403509,43.6490292 C13.3224795,43.6506199 13.3045146,43.6526784 13.2867368,43.6553918 C13.2752281,43.6571696 13.2638129,43.6592281 13.2523977,43.6613801 C13.2342456,43.6648421 13.216,43.6686784 13.1979415,43.6731696 C13.1862456,43.6761637 13.1747368,43.6794386 13.1632281,43.6829006 C13.1461988,43.6879532 13.1294503,43.6930994 13.1126082,43.6990877 C13.0990409,43.7039532 13.085848,43.7092865 13.0725614,43.7147135 C13.0583392,43.7205146 13.0442105,43.7263158 13.030269,43.7328655 C13.0139883,43.7404444 12.9981754,43.7488655 12.982269,43.7573801 C12.9744094,43.7616842 12.9661754,43.7651462 12.9583158,43.7696374 C12.9552281,43.7714152 12.9525146,43.7734737 12.9495205,43.7752515 C12.9325848,43.7852632 12.9163041,43.7963041 12.8998363,43.807345 C12.8902924,43.8138012 12.880655,43.8199766 12.8712982,43.826807 C12.8567018,43.8375673 12.8427602,43.8492632 12.8287251,43.8609591 C12.8186199,43.8692865 12.8081404,43.8774269 12.7985029,43.8862222 C12.7872749,43.8963275 12.7767018,43.9073684 12.765848,43.9181287 C12.7544327,43.9295439 12.7427368,43.9407719 12.7320702,43.9527485 C12.7238363,43.9618246 12.7162573,43.9715556 12.7083977,43.9810058 C12.6961404,43.9956959 12.683883,44.0102924 12.672655,44.0256374 C12.6662924,44.0342456 12.6604912,44.0435088 12.6544094,44.0523977 C12.6429006,44.0693333 12.6315789,44.086269 12.621193,44.1037661 C12.6195088,44.1066667 12.6175439,44.109193 12.6158596,44.1120936 C12.2138012,44.8082339 11.6072982,45.3479298 10.8985263,45.6764444 C9.13955556,42.4043977 7.53066667,38.1265965 6.22484211,34.1346433 L7.02409357,33.4341053 C7.58811696,32.9394152 8.19115789,32.432655 8.81646784,31.9277661 C9.21852632,31.6031813 9.28140351,31.0140819 8.95681871,30.6120234 C8.63223392,30.2099649 8.0431345,30.1470877 7.64098246,30.4716725 C6.99592982,30.9923743 6.37323977,31.5157895 5.79050292,32.0269474 L5.60449123,32.1899415 C5.39583626,31.5190643 5.19691228,30.8632515 5.00874854,30.2293333 C8.74301754,27.0458012 15.8555322,21.9697778 20.7718363,19.5333801 L20.7719298,36.323462 C20.7719298,36.8402339 21.1908304,37.2591345 21.7076023,37.2591345 C22.2243743,37.2591345 22.6432749,36.8402339 22.6432749,36.323462 L22.643462,19.5335673 C27.5598596,21.9699649 34.6724678,27.0460819 38.4067368,30.229614 C38.2185731,30.8635322 38.0197427,31.5191579 37.8109942,32.1899415 L37.6252632,32.0271345 C36.4185263,30.969076 35.0965146,29.9034386 33.5840936,28.7692164 C33.1705263,28.4592281 32.5840468,28.5430643 32.274152,28.9564444 C31.9640702,29.3698246 32.0479064,29.9563041 32.4612865,30.266386 C33.9148538,31.3563509 35.2372398,32.4221754 36.3916725,33.434386 L37.1908304,34.1348304 C35.8850994,38.1262222 34.2762105,42.4043977 32.5172398,45.6768187 Z" id="Shape"></path>
                        <path d="M11.0148304,28.8184327 C10.6501988,28.4943158 10.1025497,28.5072281 9.75354386,28.8349006 C9.67242105,28.9107836 9.60495906,29.0007018 9.55508772,29.1004444 C9.32397661,29.5626667 9.51129825,30.1247251 9.97361404,30.3557427 C10.1079766,30.422924 10.2506667,30.4547368 10.3912982,30.4547368 C10.6558129,30.4547368 10.9127485,30.3421754 11.0917427,30.1404444 C11.0920234,30.1400702 11.0923977,30.1397895 11.0926784,30.1394152 C11.435883,29.753076 11.4011696,29.161731 11.0148304,28.8184327 Z" id="Path"></path>
                    </g>
                </g>
            </g>
        </g>
    </g>
</svg>