<?xml version="1.0" encoding="UTF-8"?>
<svg width="24px" height="24px" viewBox="0 0 24 24" version="1.1" xmlns="http://www.w3.org/2000/svg" xmlns:xlink="http://www.w3.org/1999/xlink">
    <!-- Generator: sketchtool 53 (72520) - https://sketchapp.com -->
    <title>48C1C457-2E62-4D8E-BD4D-16274C6B5146</title>
    <desc>Created with sketchtool.</desc>
    <g id="mvp-&gt;=-1200" stroke="none" stroke-width="1" fill="none" fill-rule="evenodd" opacity="0.3">
        <g id="Home@1200" transform="translate(-1215.000000, -2845.000000)" fill="#FFFFFF">
            <g id="footer" transform="translate(0.000000, 2676.000000)">
                <g id="social-media" transform="translate(1143.000000, 169.000000)">
                    <g id="iconfinder_twitter_square_black_107068" transform="translate(72.000000, 0.000000)">
                        <path d="M13.6668,7.3132 C12.6192,7.6944 11.9572,8.6776 12.0324,9.7536 L12.0576,10.1688 L11.6384,10.118 C10.1132,9.9232 8.7804,9.2624 7.6488,8.152 L7.0956,7.6012 L6.9532,8.008 C6.6516,8.9148 6.8444,9.8724 7.4728,10.5164 C7.808,10.8724 7.7324,10.9232 7.1544,10.7112 C6.9532,10.6436 6.7772,10.5928 6.7604,10.618 C6.702,10.6776 6.9028,11.4484 7.062,11.7536 C7.28,12.1776 7.724,12.5924 8.2104,12.8384 L8.6212,13.0332 L8.1352,13.0416 C7.666,13.0416 7.6492,13.05 7.6996,13.2284 C7.8672,13.7792 8.5292,14.364 9.2668,14.6184 L9.7864,14.796 L9.334,15.0672 C8.6636,15.4576 7.8756,15.6776 7.0876,15.694 C6.71,15.7024 6.4,15.7364 6.4,15.762 C6.4,15.8464 7.4228,16.3208 8.0176,16.5076 C9.8028,17.0584 11.9236,16.8208 13.516,15.8804 C14.6476,15.2108 15.7788,13.8804 16.3072,12.592 C16.5924,11.906 16.8772,10.6516 16.8772,10.0504 C16.8772,9.6604 16.9024,9.6096 17.3716,9.1436 C17.6484,8.8724 17.908,8.576 17.9584,8.4912 C18.0424,8.33 18.0336,8.33 17.6064,8.474 C16.894,8.7284 16.7932,8.6944 17.1456,8.3132 C17.4052,8.042 17.7156,7.5504 17.7156,7.4064 C17.7156,7.3812 17.59,7.4232 17.4472,7.4996 C17.2964,7.5844 16.9612,7.7116 16.7096,7.7876 L16.2572,7.932 L15.8464,7.652 C15.62,7.4996 15.302,7.33 15.134,7.2792 C14.7064,7.1608 14.0524,7.1776 13.6668,7.3132 Z M0,0 L24,0 L24,24 L0,24 L0,0 Z" id="Shape"></path>
                    </g>
                </g>
            </g>
        </g>
    </g>
</svg>